<svg width="197" height="49" viewBox="0 0 197 49" fill="none" xmlns="http://www.w3.org/2000/svg">
<path d="M17.0345 18.1564H22.4432V40.3752H17.0345V37.7511C15.4211 39.9171 13.1401 41.0002 10.19 41.0002C7.2399 41.0002 4.99758 39.8762 2.99167 37.6055C0.98576 35.3347 0 32.5665 0 29.2765C0 25.9864 1.00295 23.2166 2.99024 20.9474C4.97752 18.6782 7.39607 17.5527 10.1886 17.5527C13.1186 17.5527 15.4011 18.6358 17.033 20.8018V18.158L17.0345 18.1564ZM7.04217 33.7739C8.14399 34.9404 9.5209 35.5228 11.193 35.5228C12.865 35.5228 14.262 34.9404 15.3624 33.7739C16.4642 32.6074 17.0144 31.1088 17.0144 29.2765C17.0144 27.4441 16.4642 25.9455 15.3624 24.779C14.2606 23.6125 12.865 23.0301 11.193 23.0301C9.5209 23.0301 8.12393 23.6125 7.04217 24.779C5.96041 25.9455 5.41022 27.4441 5.41022 29.2765C5.41022 31.1088 5.96041 32.6074 7.04217 33.7739Z" fill="#145AFF"/>
<path d="M36.9638 41.0002C33.7626 41.0002 31.0973 39.8762 28.9693 37.6267C26.8414 35.3772 25.7681 32.5877 25.7681 29.2764C25.7681 25.9652 26.8414 23.1757 28.9693 20.9262C31.0973 18.6767 33.7611 17.5527 36.9638 17.5527C39.0324 17.5527 40.901 18.073 42.6117 19.1151C44.3224 20.1572 45.5943 21.5511 46.4692 23.3001L41.7556 26.1942C41.3384 25.278 40.6823 24.5484 39.8262 24.0282C38.9701 23.5079 37.9967 23.2364 36.9233 23.2364C35.2922 23.2364 33.9205 23.7991 32.8471 24.9443C31.7737 26.0896 31.2363 27.5472 31.2363 29.3174C31.2363 31.0876 31.7737 32.5028 32.8471 33.648C33.9205 34.7932 35.2734 35.356 36.9233 35.356C38.0169 35.356 39.0106 35.1057 39.8667 34.5854C40.7228 34.0651 41.3776 33.3568 41.7962 32.4194L46.5488 35.2513C45.6145 37.0002 44.3022 38.3957 42.6117 39.4575C40.9213 40.5193 39.0324 40.9986 36.9638 40.9986V41.0002Z" fill="#145AFF"/>
<path d="M59.407 41.0002C56.2057 41.0002 53.5404 39.8762 51.4125 37.6267C49.2845 35.3772 48.2112 32.5877 48.2112 29.2764C48.2112 25.9652 49.2845 23.1757 51.4125 20.9262C53.5404 18.6767 56.2042 17.5527 59.407 17.5527C61.4755 17.5527 63.3441 18.073 65.0548 19.1151C66.7656 20.1572 68.0374 21.5511 68.9123 23.3001L64.1987 26.1942C63.7816 25.278 63.1254 24.5484 62.2693 24.0282C61.4132 23.5079 60.4398 23.2364 59.3664 23.2364C57.7353 23.2364 56.3636 23.7991 55.2902 24.9443C54.2168 26.0896 53.6794 27.5472 53.6794 29.3174C53.6794 31.0876 54.2168 32.5028 55.2902 33.648C56.3636 34.7932 57.7165 35.356 59.3664 35.356C60.46 35.356 61.4537 35.1057 62.3098 34.5854C63.1659 34.0651 63.8207 33.3568 64.2393 32.4194L68.992 35.2513C68.0577 37.0002 66.7453 38.3957 65.0548 39.4575C63.3644 40.5193 61.4755 40.9986 59.407 40.9986V41.0002Z" fill="#145AFF"/>
<path d="M76.5189 31.63C77.2725 34.4212 79.3093 35.8152 82.6485 35.8152C84.7862 35.8152 86.4165 35.0659 87.5158 33.5868L92.0374 36.2521C89.8997 39.418 86.7429 41.0002 82.567 41.0002C78.9829 41.0002 76.0902 39.8958 73.9125 37.669C71.7333 35.4406 70.6548 32.6509 70.6548 29.2772C70.6548 25.9035 71.7347 23.1336 73.8724 20.9052C76.0101 18.6768 78.7604 17.5527 82.1204 17.5527C85.298 17.5527 87.9252 18.6768 90.0021 20.9264C92.0789 23.1761 93.098 25.9657 93.098 29.2772C93.098 30.0266 93.0164 30.7972 92.874 31.63H76.5204H76.5189ZM76.4373 27.1732H87.5158C87.1894 25.6745 86.5382 24.5489 85.5398 23.7995C84.5414 23.0501 83.4021 22.6952 82.1382 22.6952C80.631 22.6952 79.3894 23.0911 78.4118 23.8617C77.4134 24.6536 76.7622 25.7564 76.4358 27.1732H76.4373Z" fill="#145AFF"/>
<path d="M96.4229 40.1317V8H102.241V40.1317H96.4229Z" fill="#145AFF"/>
<path d="M128.01 9.75734V39.5877H124.313V35.884C122.623 38.5012 119.899 40.1316 116.301 40.1316C110.397 40.1316 105.566 35.2007 105.566 28.8402C105.566 22.4798 110.397 17.5489 116.301 17.5489C119.9 17.5489 122.624 19.1793 124.313 21.7965V9.73682L128.01 9.75734ZM124.331 28.8593C124.331 24.4709 121.072 21.1704 116.776 21.1704C112.481 21.1704 109.262 24.4709 109.262 28.8593C109.262 33.2477 112.522 36.5482 116.776 36.5482C121.031 36.5482 124.331 33.2272 124.331 28.8593Z" fill="#145AFF"/>
<path d="M153.778 18.1142V39.5879H150.081V35.8848C148.391 38.5016 145.667 40.1317 142.07 40.1317C136.165 40.1317 131.334 35.2017 131.334 28.8422C131.334 22.4828 136.165 17.5527 142.07 17.5527C145.668 17.5527 148.392 19.1829 150.081 21.7997V18.0966L153.778 18.1171V18.1142ZM150.081 28.8613C150.081 24.4736 146.821 21.1737 142.526 21.1737C138.231 21.1737 135.011 24.4736 135.011 28.8613C135.011 33.249 138.271 36.5489 142.526 36.5489C146.78 36.5489 150.081 33.2284 150.081 28.8613Z" fill="#145AFF"/>
<path d="M165.667 21.8124V33.6098C165.667 36.9164 167.502 36.7127 171.214 36.5283V39.9167C164.964 40.7938 162.055 39.0395 162.055 33.6098V21.7916H157.934V18.1387H162.055V13.1788L165.687 12.3418V18.1595H171.234V21.8124H165.667Z" fill="#145AFF"/>
<path d="M196.171 18.1142V39.5879H192.61V35.8848C190.983 38.5016 188.36 40.1317 184.896 40.1317C179.211 40.1317 174.559 35.2017 174.559 28.8422C174.559 22.4828 179.211 17.5527 184.896 17.5527C188.361 17.5527 190.984 19.1829 192.61 21.7997V18.0966L196.171 18.1171V18.1142ZM192.61 28.8613C192.61 24.4736 189.471 21.1737 185.335 21.1737C181.199 21.1737 178.099 24.4736 178.099 28.8613C178.099 33.249 181.238 36.5489 185.335 36.5489C189.432 36.5489 192.61 33.2284 192.61 28.8613Z" fill="#145AFF"/>
</svg>
